<svg width="100" height="12" viewBox="0 0 100 12" fill="none" xmlns="http://www.w3.org/2000/svg">
<path d="M9.132 8.232V10.884H8.304V9H0.972L0.96 10.884H0.132L0.144 8.232H0.564C1.116 8.2 1.5 7.764 1.716 6.924C1.932 6.076 2.064 4.876 2.112 3.324L2.208 0.599999H7.872V8.232H9.132ZM2.904 3.408C2.864 4.688 2.764 5.744 2.604 6.576C2.452 7.4 2.192 7.952 1.824 8.232H6.996V1.368H2.976L2.904 3.408ZM10.7393 2.688H11.5913V7.704L15.8033 2.688H16.5593V9H15.7073V3.984L11.5073 9H10.7393V2.688ZM21.9442 5.712C22.3922 5.816 22.7362 5.996 22.9762 6.252C23.2242 6.508 23.3482 6.82 23.3482 7.188C23.3482 7.556 23.2202 7.884 22.9642 8.172C22.7162 8.46 22.3762 8.684 21.9442 8.844C21.5122 8.996 21.0362 9.072 20.5162 9.072C20.0602 9.072 19.6122 9.008 19.1722 8.88C18.7322 8.744 18.3482 8.548 18.0202 8.292L18.3082 7.656C18.5962 7.872 18.9322 8.04 19.3162 8.16C19.7002 8.28 20.0882 8.34 20.4802 8.34C21.0642 8.34 21.5402 8.232 21.9082 8.016C22.2842 7.792 22.4722 7.492 22.4722 7.116C22.4722 6.78 22.3202 6.52 22.0162 6.336C21.7122 6.144 21.2962 6.048 20.7682 6.048H19.6882V5.424H20.7202C21.1922 5.424 21.5722 5.336 21.8602 5.16C22.1482 4.976 22.2922 4.732 22.2922 4.428C22.2922 4.092 22.1282 3.828 21.8002 3.636C21.4802 3.444 21.0602 3.348 20.5402 3.348C19.8602 3.348 19.1882 3.52 18.5242 3.864L18.2842 3.204C19.0362 2.812 19.8162 2.616 20.6242 2.616C21.1042 2.616 21.5362 2.688 21.9202 2.832C22.3122 2.968 22.6162 3.164 22.8322 3.42C23.0562 3.676 23.1682 3.972 23.1682 4.308C23.1682 4.628 23.0562 4.912 22.8322 5.16C22.6162 5.408 22.3202 5.592 21.9442 5.712ZM27.4543 2.64C28.2783 2.64 28.9103 2.848 29.3503 3.264C29.7903 3.672 30.0103 4.28 30.0103 5.088V9H29.1943V8.016C29.0023 8.344 28.7183 8.6 28.3423 8.784C27.9743 8.968 27.5343 9.06 27.0223 9.06C26.3183 9.06 25.7583 8.892 25.3423 8.556C24.9263 8.22 24.7183 7.776 24.7183 7.224C24.7183 6.688 24.9103 6.256 25.2943 5.928C25.6863 5.6 26.3063 5.436 27.1543 5.436H29.1583V5.052C29.1583 4.508 29.0063 4.096 28.7023 3.816C28.3983 3.528 27.9543 3.384 27.3703 3.384C26.9703 3.384 26.5863 3.452 26.2183 3.588C25.8503 3.716 25.5343 3.896 25.2703 4.128L24.8863 3.492C25.2063 3.22 25.5903 3.012 26.0383 2.868C26.4863 2.716 26.9583 2.64 27.4543 2.64ZM27.1543 8.388C27.6343 8.388 28.0463 8.28 28.3903 8.064C28.7343 7.84 28.9903 7.52 29.1583 7.104V6.072H27.1783C26.0983 6.072 25.5583 6.448 25.5583 7.2C25.5583 7.568 25.6983 7.86 25.9783 8.076C26.2583 8.284 26.6503 8.388 27.1543 8.388ZM32.2784 2.688H33.1304V7.704L37.3424 2.688H38.0984V9H37.2464V3.984L33.0464 9H32.2784V2.688ZM35.1464 1.776C34.6024 1.776 34.1704 1.64 33.8504 1.368C33.5304 1.096 33.3664 0.712 33.3584 0.215999H33.9704C33.9784 0.528 34.0904 0.78 34.3064 0.972C34.5224 1.156 34.8024 1.248 35.1464 1.248C35.4904 1.248 35.7704 1.156 35.9864 0.972C36.2104 0.78 36.3264 0.528 36.3344 0.215999H36.9464C36.9384 0.712 36.7704 1.096 36.4424 1.368C36.1224 1.64 35.6904 1.776 35.1464 1.776ZM40.5401 2.688H41.3921V5.484H45.3641V2.688H46.2161V9H45.3641V6.216H41.3921V9H40.5401V2.688ZM51.2864 5.376H54.4304V6.12H51.2864V5.376ZM62.1411 9.06C61.5171 9.06 60.9571 8.924 60.4611 8.652C59.9731 8.38 59.5891 8 59.3091 7.512C59.0291 7.016 58.8891 6.46 58.8891 5.844C58.8891 5.228 59.0291 4.676 59.3091 4.188C59.5891 3.7 59.9731 3.32 60.4611 3.048C60.9571 2.776 61.5171 2.64 62.1411 2.64C62.6851 2.64 63.1691 2.748 63.5931 2.964C64.0251 3.172 64.3651 3.48 64.6131 3.888L63.9771 4.32C63.7691 4.008 63.5051 3.776 63.1851 3.624C62.8651 3.464 62.5171 3.384 62.1411 3.384C61.6851 3.384 61.2731 3.488 60.9051 3.696C60.5451 3.896 60.2611 4.184 60.0531 4.56C59.8531 4.936 59.7531 5.364 59.7531 5.844C59.7531 6.332 59.8531 6.764 60.0531 7.14C60.2611 7.508 60.5451 7.796 60.9051 8.004C61.2731 8.204 61.6851 8.304 62.1411 8.304C62.5171 8.304 62.8651 8.228 63.1851 8.076C63.5051 7.924 63.7691 7.692 63.9771 7.38L64.6131 7.812C64.3651 8.22 64.0251 8.532 63.5931 8.748C63.1611 8.956 62.6771 9.06 62.1411 9.06ZM70.5856 3.444H68.1976V9H67.3456V3.444H64.9576V2.688H70.5856V3.444ZM77.2049 2.688L74.0489 9.756C73.7929 10.348 73.4969 10.768 73.1609 11.016C72.8249 11.264 72.4209 11.388 71.9489 11.388C71.6449 11.388 71.3609 11.34 71.0969 11.244C70.8329 11.148 70.6049 11.004 70.4129 10.812L70.8089 10.176C71.1289 10.496 71.5129 10.656 71.9609 10.656C72.2489 10.656 72.4929 10.576 72.6929 10.416C72.9009 10.256 73.0929 9.984 73.2689 9.6L73.5449 8.988L70.7249 2.688H71.6129L73.9889 8.052L76.3649 2.688H77.2049ZM84.4071 8.256V10.524H83.6031V9H77.9511V10.524H77.1471V8.256H77.5071C77.9311 8.232 78.2191 7.92 78.3711 7.32C78.5231 6.72 78.6271 5.88 78.6831 4.8L78.7671 2.688H83.4231V8.256H84.4071ZM79.4631 4.848C79.4231 5.744 79.3471 6.484 79.2351 7.068C79.1231 7.644 78.9231 8.04 78.6351 8.256H82.5711V3.444H79.5351L79.4631 4.848ZM86.0675 2.688H86.9195V7.704L91.1315 2.688H91.8875V9H91.0355V3.984L86.8355 9H86.0675V2.688ZM99.1772 2.688V9H98.3972V6.912H96.4172H96.1772L94.7132 9H93.7892L95.3612 6.792C94.8732 6.656 94.4972 6.424 94.2332 6.096C93.9692 5.768 93.8372 5.352 93.8372 4.848C93.8372 4.144 94.0772 3.608 94.5572 3.24C95.0372 2.872 95.6932 2.688 96.5252 2.688H99.1772ZM94.7012 4.872C94.7012 5.808 95.2972 6.276 96.4892 6.276H98.3972V3.444H96.5492C95.3172 3.444 94.7012 3.92 94.7012 4.872Z" fill="#242424"/>
</svg>
